<mxfile host="Electron" agent="Mozilla/5.0 (Windows NT 10.0; Win64; x64) AppleWebKit/537.36 (KHTML, like Gecko) draw.io/24.7.8 Chrome/128.0.6613.36 Electron/32.0.1 Safari/537.36" version="24.7.8">
  <diagram id="rixkyah6m9kLtBdBK0iV" name="tt">
    <mxGraphModel dx="1434" dy="844" grid="1" gridSize="10" guides="1" tooltips="1" connect="1" arrows="1" fold="1" page="1" pageScale="1" pageWidth="1169" pageHeight="827" math="0" shadow="0">
      <root>
        <mxCell id="0" />
        <mxCell id="1" parent="0" />
        <mxCell id="edKIq7crGZylfQP5pC1n-1" value="Normal" style="rounded=0;whiteSpace=wrap;html=1;align=left;verticalAlign=top;spacing=2;spacingLeft=4;spacingRight=4;strokeColor=default;" parent="1" vertex="1">
          <mxGeometry x="280" y="240" width="100" height="220" as="geometry" />
        </mxCell>
        <mxCell id="edKIq7crGZylfQP5pC1n-2" value="Duration of training session: 15&lt;div&gt;&lt;br&gt;&lt;/div&gt;&lt;div&gt;song 1: 300&lt;/div&gt;&lt;div&gt;&lt;br&gt;&lt;/div&gt;&lt;div&gt;song 2: 300&lt;/div&gt;&lt;div&gt;&lt;br&gt;&lt;/div&gt;&lt;div&gt;song 3: 400&lt;/div&gt;" style="rounded=0;whiteSpace=wrap;html=1;align=left;verticalAlign=top;spacing=2;spacingLeft=4;spacingRight=4;strokeColor=default;" parent="1" vertex="1">
          <mxGeometry x="370" y="240" width="120" height="220" as="geometry" />
        </mxCell>
        <mxCell id="edKIq7crGZylfQP5pC1n-3" value="Enough songs have been entered.&lt;div&gt;&lt;br&gt;&lt;/div&gt;&lt;div&gt;The number of sings played was _________.&lt;/div&gt;&lt;div&gt;&lt;br&gt;&lt;/div&gt;&lt;div&gt;1: 300&lt;/div&gt;&lt;div&gt;&lt;br&gt;&lt;/div&gt;&lt;div&gt;________________________________________&lt;/div&gt;&lt;div&gt;&lt;br&gt;&lt;/div&gt;&lt;div&gt;________________________________________&lt;br&gt;&lt;/div&gt;&lt;div&gt;&lt;br&gt;&lt;/div&gt;&lt;div&gt;________________________________________&lt;br&gt;&lt;/div&gt;&lt;div&gt;&lt;br&gt;&lt;/div&gt;&lt;div&gt;The total length of the training session was 1000.&lt;/div&gt;" style="rounded=0;whiteSpace=wrap;html=1;align=left;verticalAlign=top;spacing=2;spacingLeft=4;spacingRight=4;strokeColor=default;" parent="1" vertex="1">
          <mxGeometry x="490" y="240" width="280" height="220" as="geometry" />
        </mxCell>
        <mxCell id="edKIq7crGZylfQP5pC1n-15" value="&lt;div&gt;Tyoe of test&lt;/div&gt;" style="rounded=0;whiteSpace=wrap;html=1;align=left;verticalAlign=middle;spacing=2;spacingLeft=4;spacingRight=4;strokeColor=default;fillColor=#d4d4d4;fontStyle=1" parent="1" vertex="1">
          <mxGeometry x="280" y="200" width="100" height="40" as="geometry" />
        </mxCell>
        <mxCell id="edKIq7crGZylfQP5pC1n-16" value="User input" style="rounded=0;whiteSpace=wrap;html=1;align=left;verticalAlign=middle;spacing=2;spacingLeft=4;spacingRight=4;strokeColor=default;fillColor=#d4d4d4;fontStyle=1" parent="1" vertex="1">
          <mxGeometry x="370" y="200" width="120" height="40" as="geometry" />
        </mxCell>
        <mxCell id="edKIq7crGZylfQP5pC1n-17" value="&lt;div&gt;Expected output&lt;/div&gt;" style="rounded=0;whiteSpace=wrap;html=1;align=left;verticalAlign=middle;spacing=2;spacingLeft=4;spacingRight=4;strokeColor=default;fillColor=#d4d4d4;fontStyle=1" parent="1" vertex="1">
          <mxGeometry x="490" y="200" width="280" height="40" as="geometry" />
        </mxCell>
      </root>
    </mxGraphModel>
  </diagram>
</mxfile>
